<mxfile host="app.diagrams.net" modified="2024-03-05T18:51:56.662Z" agent="Mozilla/5.0 (Windows NT 10.0; Win64; x64) AppleWebKit/537.36 (KHTML, like Gecko) Chrome/122.0.0.0 Safari/537.36" etag="1x-uWE2UvvU1GId28dLo" version="24.0.1" type="github">
  <diagram id="C5RBs43oDa-KdzZeNtuy" name="Page-1">
    <mxGraphModel dx="954" dy="600" grid="1" gridSize="10" guides="1" tooltips="1" connect="1" arrows="1" fold="1" page="1" pageScale="1" pageWidth="827" pageHeight="1169" math="0" shadow="0">
      <root>
        <mxCell id="WIyWlLk6GJQsqaUBKTNV-0" />
        <mxCell id="WIyWlLk6GJQsqaUBKTNV-1" parent="WIyWlLk6GJQsqaUBKTNV-0" />
        <mxCell id="mGKbZl9v-C9BCtO-PryU-7" style="edgeStyle=orthogonalEdgeStyle;rounded=0;orthogonalLoop=1;jettySize=auto;html=1;exitX=0.5;exitY=1;exitDx=0;exitDy=0;exitPerimeter=0;entryX=0.5;entryY=0;entryDx=0;entryDy=0;" edge="1" parent="WIyWlLk6GJQsqaUBKTNV-1" source="mGKbZl9v-C9BCtO-PryU-0" target="mGKbZl9v-C9BCtO-PryU-2">
          <mxGeometry relative="1" as="geometry" />
        </mxCell>
        <mxCell id="mGKbZl9v-C9BCtO-PryU-0" value="Inicio" style="strokeWidth=2;html=1;shape=mxgraph.flowchart.start_1;whiteSpace=wrap;" vertex="1" parent="WIyWlLk6GJQsqaUBKTNV-1">
          <mxGeometry x="386" y="10" width="56" height="40" as="geometry" />
        </mxCell>
        <mxCell id="mGKbZl9v-C9BCtO-PryU-1" value="Fin" style="strokeWidth=2;html=1;shape=mxgraph.flowchart.start_1;whiteSpace=wrap;" vertex="1" parent="WIyWlLk6GJQsqaUBKTNV-1">
          <mxGeometry x="562" y="310" width="56" height="40" as="geometry" />
        </mxCell>
        <mxCell id="mGKbZl9v-C9BCtO-PryU-8" style="edgeStyle=orthogonalEdgeStyle;rounded=0;orthogonalLoop=1;jettySize=auto;html=1;exitX=0.5;exitY=1;exitDx=0;exitDy=0;entryX=0.5;entryY=0;entryDx=0;entryDy=0;" edge="1" parent="WIyWlLk6GJQsqaUBKTNV-1" source="mGKbZl9v-C9BCtO-PryU-2" target="mGKbZl9v-C9BCtO-PryU-3">
          <mxGeometry relative="1" as="geometry" />
        </mxCell>
        <mxCell id="mGKbZl9v-C9BCtO-PryU-2" value="listarTerminales" style="rounded=1;whiteSpace=wrap;html=1;absoluteArcSize=1;arcSize=14;strokeWidth=2;" vertex="1" parent="WIyWlLk6GJQsqaUBKTNV-1">
          <mxGeometry x="364" y="70" width="100" height="30" as="geometry" />
        </mxCell>
        <mxCell id="mGKbZl9v-C9BCtO-PryU-3" value="Query SELECT id, nombre FROM terminales" style="rounded=1;whiteSpace=wrap;html=1;absoluteArcSize=1;arcSize=14;strokeWidth=2;" vertex="1" parent="WIyWlLk6GJQsqaUBKTNV-1">
          <mxGeometry x="281" y="120" width="266" height="40" as="geometry" />
        </mxCell>
        <mxCell id="mGKbZl9v-C9BCtO-PryU-10" style="edgeStyle=orthogonalEdgeStyle;rounded=0;orthogonalLoop=1;jettySize=auto;html=1;exitX=0.5;exitY=1;exitDx=0;exitDy=0;exitPerimeter=0;entryX=0.5;entryY=0;entryDx=0;entryDy=0;" edge="1" parent="WIyWlLk6GJQsqaUBKTNV-1" source="mGKbZl9v-C9BCtO-PryU-5" target="mGKbZl9v-C9BCtO-PryU-6">
          <mxGeometry relative="1" as="geometry" />
        </mxCell>
        <mxCell id="mGKbZl9v-C9BCtO-PryU-13" style="edgeStyle=orthogonalEdgeStyle;rounded=0;orthogonalLoop=1;jettySize=auto;html=1;exitX=1;exitY=0.5;exitDx=0;exitDy=0;exitPerimeter=0;entryX=0.5;entryY=0;entryDx=0;entryDy=0;" edge="1" parent="WIyWlLk6GJQsqaUBKTNV-1" source="mGKbZl9v-C9BCtO-PryU-5" target="mGKbZl9v-C9BCtO-PryU-12">
          <mxGeometry relative="1" as="geometry" />
        </mxCell>
        <mxCell id="mGKbZl9v-C9BCtO-PryU-5" value="while tracker.read()" style="strokeWidth=2;html=1;shape=mxgraph.flowchart.loop_limit;whiteSpace=wrap;" vertex="1" parent="WIyWlLk6GJQsqaUBKTNV-1">
          <mxGeometry x="364" y="180" width="100" height="60" as="geometry" />
        </mxCell>
        <mxCell id="mGKbZl9v-C9BCtO-PryU-6" value="terminal : {&lt;div&gt;&quot;id&quot;: ,&lt;/div&gt;&lt;div&gt;&quot;nombre&quot;:&amp;nbsp;&lt;/div&gt;&lt;div&gt;}&lt;/div&gt;" style="rounded=1;whiteSpace=wrap;html=1;absoluteArcSize=1;arcSize=14;strokeWidth=2;" vertex="1" parent="WIyWlLk6GJQsqaUBKTNV-1">
          <mxGeometry x="364" y="260" width="100" height="100" as="geometry" />
        </mxCell>
        <mxCell id="mGKbZl9v-C9BCtO-PryU-9" style="edgeStyle=orthogonalEdgeStyle;rounded=0;orthogonalLoop=1;jettySize=auto;html=1;exitX=0.5;exitY=1;exitDx=0;exitDy=0;entryX=0.5;entryY=0;entryDx=0;entryDy=0;entryPerimeter=0;" edge="1" parent="WIyWlLk6GJQsqaUBKTNV-1" source="mGKbZl9v-C9BCtO-PryU-3" target="mGKbZl9v-C9BCtO-PryU-5">
          <mxGeometry relative="1" as="geometry" />
        </mxCell>
        <mxCell id="mGKbZl9v-C9BCtO-PryU-11" style="edgeStyle=orthogonalEdgeStyle;rounded=0;orthogonalLoop=1;jettySize=auto;html=1;exitX=0.5;exitY=1;exitDx=0;exitDy=0;entryX=0;entryY=0.5;entryDx=0;entryDy=0;entryPerimeter=0;" edge="1" parent="WIyWlLk6GJQsqaUBKTNV-1" source="mGKbZl9v-C9BCtO-PryU-6" target="mGKbZl9v-C9BCtO-PryU-5">
          <mxGeometry relative="1" as="geometry" />
        </mxCell>
        <mxCell id="mGKbZl9v-C9BCtO-PryU-12" value="return termianlesList" style="rounded=1;whiteSpace=wrap;html=1;absoluteArcSize=1;arcSize=14;strokeWidth=2;" vertex="1" parent="WIyWlLk6GJQsqaUBKTNV-1">
          <mxGeometry x="540" y="230" width="100" height="60" as="geometry" />
        </mxCell>
        <mxCell id="mGKbZl9v-C9BCtO-PryU-14" style="edgeStyle=orthogonalEdgeStyle;rounded=0;orthogonalLoop=1;jettySize=auto;html=1;exitX=0.5;exitY=1;exitDx=0;exitDy=0;entryX=0.5;entryY=0;entryDx=0;entryDy=0;entryPerimeter=0;" edge="1" parent="WIyWlLk6GJQsqaUBKTNV-1" source="mGKbZl9v-C9BCtO-PryU-12" target="mGKbZl9v-C9BCtO-PryU-1">
          <mxGeometry relative="1" as="geometry" />
        </mxCell>
      </root>
    </mxGraphModel>
  </diagram>
</mxfile>
